<svg xmlns="http://www.w3.org/2000/svg" viewBox="0 0 1239.05 951.46"><defs><style>.cls-1{fill:none;stroke:#000;stroke-miterlimit:10;stroke-width:7px;}</style></defs><title>Asset 1</title><g id="Layer_2" data-name="Layer 2"><g id="Layer_2-2" data-name="Layer 2"><path class="cls-1" d="M1229.17,334.16h0c4.67-19.17-18.17-11.67-18.17-11.67L1040,370l-269,72.5S625,482,535.5,552s-72,222.5-72,222.5,4.34,94.17,61,144.83S648.5,938,648.5,938l247.17-103.5s166.5-72.17,208.5-92.33,48.33-106.67,48.33-106.67-2.33-66,3-116.67S1182.75,423,1182.75,423s43.75-78.25,50.25-92.5-1.5-21.58-1.5-21.58-2.58-2.09-8.08-6.5S1164.5,278,1164.5,278s-323,82.5-471,117-204,77-204,77-92.66,44.17-108,154.83,17.34,170.67,17.34,170.67,41.12,74.7,124.78,121"/><path class="cls-1" d="M470.25,883.24S361.5,808.16,308.84,760.16s-124.67-120-124.67-120"/><ellipse class="cls-1" cx="436.65" cy="674.74" rx="17.16" ry="25.87" transform="translate(-128.56 103.36) rotate(-11.78)"/><path class="cls-1" d="M441.6,756.9l-26.77-15.67c-3.29-1.92-6.95-1.2-8.17,1.61h0c-1.23,2.81.45,6.64,3.74,8.57l26.77,15.66c3.29,1.93,6.95,1.21,8.17-1.6h0C446.57,762.66,444.89,758.82,441.6,756.9Z"/><path class="cls-1" d="M435.08,718.61l-5.83-3.42a1.21,1.21,0,0,0-1.79.35h0a1.6,1.6,0,0,0,.82,1.87l5.83,3.41a1.19,1.19,0,0,0,1.78-.35h0A1.57,1.57,0,0,0,435.08,718.61Z"/><path class="cls-1" d="M603.11,199.77c-12.61,1.72-25.61,3.72-38.61,4.72l-12,3c-17,1-33,1-50,4h-9c-15,3-29,2-43,2-56,2-113,3-169-4-31,6-59,22-83,43a192,192,0,0,0-14,15c-6,6-11,12-17,18-2,2-2,5-4,8l-3,3c-13,24-27,45-33,72a7.58,7.58,0,0,0,2,4c11,7,21,12,32,19,24,17,45,31,69,48,2,1,5,1,6.5,2"/><path class="cls-1" d="M1164.5,278c-11-4.5-22-7.5-33-10.5-49-16-96-31-145-47-24-8-48-16-72-25-3-1-7-1-10-2-39-14-78-25-117-38-2-4,2-8,0-12a21.86,21.86,0,0,0-5-3c-7-2-15-4-22-7-8,8-16,15-25.82,21.13"/><path class="cls-1" d="M286.5,401l24.5,19.5s7.5,16-3.5,18.5l-11,2.5a23.23,23.23,0,0,0-4.26,3.18c-3.48,3.24-7.56,8.93-5.74,16.82h-14l-35.5-20,2.5-21s-4-5.5,19.5-11S286.5,401,286.5,401Z"/><path class="cls-1" d="M292.24,444.67S323,462,286.5,461.49"/><path class="cls-1" d="M126.5,369.49C3.52,290.46,15,265,15,265S4,455.49,3.5,477,55,544.49,55,544.49s126,93.5,166,122,59.5,8.25,59.5,8.25L304.36,459"/><path class="cls-1" d="M600.94,200.15c-9.44-.66-18.44,1.34-25.44,8.34-10,11-10,26-8,39,15,3,29,6,43.75,8.75,1.3-8.7-8.23-1.67,0,0,1.25-11.75,6.25-25.75,19.25-27.75-1-7,6-15-1-19-12-7-27-6-36-18-15-16-35-24-57-28-8-2-14-7-20-12-28-29-55-54-89-77-11-7-20-13-31-19-22-10-42-22-66-26-1,0-3-2-4-2-22-3-45-7-65,5-1,1-3,1-4,1a16.12,16.12,0,0,0-7,4c-2,2-4,3-7,5-23,17-35,41-47,65-1,2,0,3-1,5-10,20-16,42-19,64-37,12-73,24-108,42-15,8-29,16-42,27a34.7,34.7,0,0,0-12,19l.5.5"/><path class="cls-1" d="M377.41,47.82c-16.43,4.34-43.57,97-43.57,97v2.71l175.66-1.33"/><path class="cls-1" d="M615,242.67s13.3,3.82,15.19-12.18"/><path class="cls-1" d="M201.81,97.66C229.46,22.82,274,21.49,274,21.49S408,6.74,443.25,3.74,537.5,27,537.5,27s82.34,38.83,106.34,69.17,52.33,42.33,67.66,48.62,23.26,10.1,57.67,26,8.67,47,8.67,47l-145.78,28S622,248,616.5,244.32"/></g></g></svg>