<svg id="Layer_2" data-name="Layer 2" xmlns="http://www.w3.org/2000/svg" viewBox="0 0 560 642.5"><title>FastIcon</title><path d="M350,616.71a280,280,0,0,1-198-478,280,280,0,0,1,396,396A278.14,278.14,0,0,1,350,616.71Zm0-545c-146.12,0-265,118.88-265,265s118.88,265,265,265,265-118.88,265-265S496.12,71.71,350,71.71Z" transform="translate(-70 -28.75)"/><path d="M486.5,81.06,183.92,373.41a10.58,10.58,0,0,0,7.2,18.19l86.52,1.33a10.58,10.58,0,0,1,8.78,16.23L162.89,604.64c-6.71,10.62,7.37,22,16.35,13.22L470,333.36a10.59,10.59,0,0,0-7.41-18.15H381.76A10.57,10.57,0,0,1,372.83,299l130-204.62C509.5,83.76,495.51,72.35,486.5,81.06Z" transform="translate(-70 -28.75)"/><path d="M122.26,654.9,272.94,416.46a10.59,10.59,0,0,0-8.79-16.24l-91.3-1.39a10.59,10.59,0,0,1-7.19-18.2l361-348.79c9-8.71,23,2.7,16.29,13.28L386.47,291.46a10.58,10.58,0,0,0,8.94,16.25h85.53a10.59,10.59,0,0,1,7.4,18.15L138.61,668.12C129.63,676.9,115.55,665.51,122.26,654.9Zm87.12-270.52,81.74,1.25a10.58,10.58,0,0,1,8.78,16.24L203.52,554.39c-6.71,10.62,7.37,22,16.35,13.22l231.7-226.75a10.59,10.59,0,0,0-7.4-18.15H368.11a10.57,10.57,0,0,1-8.93-16.25l103.46-162.9c6.72-10.58-7.28-22-16.29-13.28L202.19,366.19A10.58,10.58,0,0,0,209.38,384.38Z" transform="translate(-70 -28.75)"/></svg>