<?xml version="1.0" encoding="utf-8"?>
<!-- Generator: Adobe Illustrator 22.1.0, SVG Export Plug-In . SVG Version: 6.00 Build 0)  -->
<svg version="1.1" id="Layer_1" xmlns="http://www.w3.org/2000/svg" xmlns:xlink="http://www.w3.org/1999/xlink" x="0px" y="0px"
	 viewBox="0 0 48 48" style="enable-background:new 0 0 48 48;" xml:space="preserve">
<g id="Icons">
	<g id="Icons_22_">
		<g>
			<path d="M43.6,0H4.4C2,0,0,2,0,4.4v39.1C0,46,2,48,4.4,48h39.1c2.5,0,4.4-2,4.4-4.4V4.4C48,2.1,45.9,0,43.6,0z M15.8,37
				c-1.8,0-3.4,0-5.2,0c-0.4,0-0.4,0-0.4-0.4v-18c0-0.4,0.2-0.4,0.4-0.4c1.8,0,3.4,0,5.2,0c0.4,0,0.4,0.2,0.4,0.4v8.9c0,3,0,6,0,9.1
				C16.4,37,16.2,37,15.8,37z M13.3,15.8c-2,0-3.4-1.6-3.4-3.4s1.4-3.4,3.4-3.4s3.4,1.4,3.4,3.4C16.7,14.2,15.3,15.6,13.3,15.8z
				 M37.5,37h-5c-0.4,0-0.4,0-0.4-0.5v-9.1c0-0.9,0-1.8-0.4-2.5c-0.4-1.2-1.2-2-2.7-2c-0.9,0-1.8,0.2-2.5,0.9
				c-0.5,0.5-0.7,1.2-0.9,2.1c0,0.7-0.2,1.4-0.2,2.1c0,2.8,0,5.7,0,8.5c0,0.4,0,0.4-0.4,0.4c-1.8,0-3.4,0-5.2,0
				c-0.4,0-0.4,0-0.4-0.4c0-6,0-12.1,0-18.1c0-0.4,0.2-0.4,0.4-0.4c1.6,0,3.2,0,5,0c0.4,0,0.4,0.2,0.4,0.4c0,0.7,0,1.4,0,2
				c0.9-1.4,2.1-2.3,3.7-2.7c1.8-0.5,3.6-0.4,5.3,0.5c1.6,0.7,2.5,2.1,3,3.7c0.4,1.1,0.5,2.1,0.5,3.4c0,3.7,0,7.3,0,11
				C38,37,38,37,37.5,37z"/>
		</g>
	</g>
</g>
</svg>
