<?xml version="1.0" encoding="utf-8"?>
<!-- Generator: Adobe Illustrator 22.1.0, SVG Export Plug-In . SVG Version: 6.00 Build 0)  -->
<svg version="1.1" id="Layer_1" xmlns="http://www.w3.org/2000/svg" xmlns:xlink="http://www.w3.org/1999/xlink" x="0px" y="0px"
	 viewBox="0 0 65.3 125" style="enable-background:new 0 0 65.3 125;" xml:space="preserve">
<style type="text/css">
	.st0{fill:#74B6D3;}
</style>
<g>
	<path class="st0" d="M0.9,32.5v31.8c0,17.5,14.3,31.8,31.8,31.8s31.8-14.3,31.8-31.8V32.5C64.5,15,50.2,0.7,32.7,0.7
		S0.9,15,0.9,32.5z M32.7,7.7c13.6,0,24.7,11.1,24.7,24.7v31.8C57.4,77.9,46.3,89,32.7,89S7.9,77.9,7.9,64.3V32.5
		C7.9,18.9,19.1,7.7,32.7,7.7z"/>
	<path class="st0" d="M32.7,37.8c1.9,0,3.5-1.6,3.5-3.5V23.6c0-1.9-1.6-3.5-3.5-3.5c-1.9,0-3.5,1.6-3.5,3.5v10.6
		C29.1,36.2,30.7,37.8,32.7,37.8z"/>
	<path class="st0" d="M30.2,123.3c0.7,0.7,1.6,1.1,2.5,1.1c0.9,0,1.8-0.4,2.5-1.1l8.8-8.8c1.4-1.4,1.4-3.5,0-4.9
		c-1.4-1.4-3.5-1.4-4.9,0l-6.4,6.4l-6.4-6.4c-1.4-1.4-3.5-1.4-4.9,0s-1.4,3.5,0,4.9L30.2,123.3z"/>
</g>
</svg>
